<svg width="194" height="85" viewBox="0 0 194 85" fill="none" xmlns="http://www.w3.org/2000/svg">
<path d="M21.7315 37.8066H9.87236L8.44287 39.9791H20.3019L21.7315 37.8066Z" fill="#0D6EFD"/>
<path d="M34.6706 16.084H22.8114L21.3818 18.2566H33.241L34.6706 16.084Z" fill="#0D6EFD"/>
<path d="M139.244 37.8066H127.385L125.955 39.9791H137.814L139.244 37.8066Z" fill="#0D6EFD"/>
<path d="M152.182 16.084H140.323L138.894 18.2566H150.753L152.182 16.084Z" fill="#0D6EFD"/>
<path d="M103.747 46.4326H101.095V48.738H103.747V46.4326Z" fill="#0D6EFD"/>
<path d="M61.0227 50.3519L53.6468 50.3321L53.651 48.7383H56.102V46.433H53.6572L53.7209 22.602H58.9381L60.3678 20.4295H53.7268L53.7325 18.2569H58.1435L59.5731 16.0844H53.7383L53.7498 11.7607L45.7916 11.7393L45.7876 11.7453L43.571 11.7393L43.5662 11.7466L41.2749 11.7409L38.4156 16.0853H40.7112L39.2823 18.257L39.282 18.2575H36.986L35.5563 20.4298H37.8525L36.4233 22.6019H34.1266L21.2601 42.1544H14.8447L13.4151 44.327H19.8304L15.9377 50.2427L15.9358 50.8446H11.6166L10.187 53.017H15.9291L15.9128 58.2291L41.1508 58.2989L41.1347 63.8796H31.9112L30.4816 66.0521H41.1285L41.1161 70.3756L48.8627 70.3951V70.3971H58.5377L59.9673 68.2246H53.5989L53.6047 66.0521H57.3726L58.802 63.8796H53.6106L53.6254 58.331L56.4803 58.3387L56.4804 58.3328L58.7809 58.339V58.3329L61.0014 58.339L61.0039 57.3621H63.1255L64.5551 55.1896H61.0098L61.0155 53.017H65.4558L66.8855 50.8446H61.0215L61.0227 50.3519ZM41.1708 50.2984L31.3622 50.272L35.377 44.327H35.3771L36.8443 42.1544L41.2083 35.6924L41.1708 50.2984Z" fill="#0D6EFD"/>
<path d="M178.535 50.3519L171.159 50.3321L171.163 48.7383H173.614V46.433H171.169L171.233 22.602H176.45L177.88 20.4295H171.239L171.245 18.2569H175.656L177.085 16.0844H171.251L171.262 11.7607L163.304 11.7393L163.3 11.7453L161.083 11.7393L161.078 11.7466L158.787 11.7409L155.928 16.0853H158.223L157.909 16.5632L156.794 18.257L156.794 18.2575H154.498L153.068 20.4298H155.365L153.935 22.6019H151.639L138.772 42.1546H132.357L130.927 44.3272H137.343L133.45 50.2429L133.448 50.8447H129.129L127.699 53.0171H133.441L133.425 58.2293L158.663 58.2991L158.647 63.8798H149.423L147.994 66.0523H158.641L158.628 70.3758L166.375 70.3952V70.3973H176.05L177.479 68.2248H171.111L171.117 66.0523H174.885L176.314 63.8798H171.123L171.138 58.3312L173.992 58.3389V58.3329L176.293 58.3391V58.3331L178.513 58.3391L178.516 57.3622H180.637L182.067 55.1897H178.522L178.528 53.0171H182.968L184.397 50.8447H178.533L178.535 50.3519ZM158.683 50.2984L148.874 50.272L152.889 44.327L154.356 42.1544L158.72 35.6924L158.683 50.2984Z" fill="#0D6EFD"/>
<path d="M123.433 53.0164L124.863 50.844H119.836L119.876 35.6363H124.525L125.955 33.4638H119.882L119.892 29.7476C119.899 27.2301 119.407 24.8076 118.507 22.6013H120.752L122.181 20.4288H117.454C117.024 19.6695 116.542 18.9439 116.015 18.2563H121.673L123.103 16.0838H114.061C113.327 15.3846 112.536 14.7446 111.695 14.1712C108.722 12.1408 105.106 10.9453 101.249 10.9366C100.866 10.9355 100.486 10.9463 100.108 10.9682C99.762 10.9482 99.4137 10.9374 99.0635 10.9366C98.5712 10.9352 98.0825 10.9532 97.5983 10.9897C97.1578 10.9573 96.7136 10.9401 96.266 10.939C93.6963 10.9316 91.2257 11.4505 88.9845 12.3954C86.8828 13.2815 84.9809 14.5374 83.356 16.0835H78.0368L76.6073 18.256H81.4023C81.1747 18.5523 80.9556 18.8556 80.7457 19.1657C78.8154 22.0127 77.6423 25.4468 77.5313 29.1187H73.4271L71.9975 31.2912H77.5183L77.501 37.8065H67.8496L66.4199 39.979H77.495L77.4893 42.1539H72.8219L71.3925 44.3265H77.4835L77.4661 50.844H71.8039L70.3742 53.0164H77.5845C77.7867 54.8148 78.243 56.5431 78.9171 58.1533C79.8139 60.2959 81.0911 62.2316 82.6653 63.879H80.0713L78.6418 66.0514H85.1395C85.3119 66.1777 85.4863 66.3013 85.663 66.4219C88.6361 68.4522 92.2515 69.6478 96.1088 69.6565C96.6013 69.6579 97.09 69.6398 97.5744 69.6033C98.0147 69.6357 98.4588 69.6529 98.9064 69.6539C99.2894 69.655 99.67 69.6443 100.048 69.6224C100.394 69.6424 100.742 69.6531 101.092 69.6539C103.662 69.6613 106.132 69.1424 108.373 68.1976C111.737 66.7794 114.589 64.4139 116.612 61.4272C117.461 60.1755 118.163 58.8103 118.693 57.3613H122.998L124.428 55.1888H119.342C119.508 54.4787 119.634 53.7535 119.717 53.0162H123.433V53.0164ZM106.621 50.9242C106.616 52.3853 106.32 53.7551 105.789 55.0076C104.993 56.8843 103.657 58.4923 101.982 59.6206C100.977 60.2963 99.8595 60.8006 98.656 61.0956C98.1004 60.9598 97.5629 60.7796 97.0456 60.5587C95.1756 59.76 93.5736 58.4187 92.4492 56.7377C91.3252 55.0539 90.6765 53.0542 90.6807 50.8655L90.6982 44.3284H93.3538L94.8233 42.1562H90.704L90.7373 29.6691C90.7419 28.208 91.0376 26.8382 91.5688 25.5857C92.0359 24.484 92.6897 23.4751 93.4885 22.6012H97.2314L98.6607 20.4291H96.2786C97.0368 20.0222 97.8477 19.7071 98.7021 19.4976C99.2577 19.6334 99.7953 19.8136 100.313 20.0346C102.183 20.8334 103.785 22.1746 104.909 23.8556C106.033 25.5394 106.682 27.5391 106.678 29.7279L106.621 50.9242Z" fill="#0D6EFD"/>
<path d="M61.0218 50.8445L61.0231 50.3519L53.6471 50.3321L53.6514 48.7383H56.1023V46.433H53.6575L53.7213 22.602H58.9385L60.3681 20.4295H53.7271L53.7329 18.2569H58.1439L59.5735 16.0844H53.7387L53.7502 11.7607L45.7919 11.7393L45.788 11.7453L43.5713 11.7393L43.5665 11.7466L40.7122 16.0844H42.9327L41.5031 18.2569H39.2826L39.2824 18.2574L37.8529 20.4297H42.4367L41.0074 22.6018H36.4236L26.4178 37.8073H28.1946L26.765 39.9795H24.9884L23.5572 42.1544H16.935L15.5054 44.327H22.1276L18.2349 50.2427L18.2332 50.8446H13.7069L12.2773 53.017H18.2274L18.2133 58.2296L43.4468 58.2977L43.4437 59.4681H45.7114V61.7733H43.4376L43.432 63.8795L43.4262 66.052L43.4146 70.3754L48.8631 70.3901V70.397H58.5381L59.9677 68.2245H53.5993L53.6051 66.052H57.3729L58.8024 63.8795H53.611L53.6258 58.3309V58.325L56.4808 58.3327L58.7812 58.3389V58.3328L61.0017 58.3389L61.0043 57.362H63.1258L64.5555 55.1895H61.0101L61.0159 53.0169H65.4562L66.8859 50.8445H61.0218ZM45.7696 48.7383H43.4725L43.4683 50.3046L41.1712 50.2984L31.3625 50.272L35.3774 44.327L36.8446 42.1544L41.2086 35.6924L43.5167 32.2747L43.4788 46.4329H45.7697V48.7383H45.7696Z" fill="#DC3545"/>
<path d="M178.534 50.8445L178.535 50.3519L171.159 50.3321L171.164 48.7383H173.614V46.433H171.17L171.233 22.602H176.451L177.88 20.4295H171.239L171.245 18.2569H175.656L177.086 16.0844H171.251L171.262 11.7607L163.304 11.7393L163.3 11.7453L161.083 11.7393L161.079 11.7466L158.224 16.0853L158.224 16.0845H160.445L160.13 16.5632L159.015 18.257H156.795L156.794 18.2575L155.365 20.4298H159.949L158.519 22.6019H153.936L143.93 37.8074H145.707L144.277 39.9796H142.501L141.069 42.1545H134.447L133.018 44.3271H139.64L135.747 50.2428L135.745 50.8446H131.219L129.79 53.0171H135.74L135.726 58.2297L160.959 58.2977L160.956 59.4682H163.224V61.7734H160.95L160.944 63.8796L160.938 66.0521L160.927 70.3754L166.375 70.3902V70.3971H176.05L177.48 68.2246H171.112L171.117 66.0521H174.885L176.315 63.8796H171.123L171.138 58.331V58.3251L173.993 58.3328L176.293 58.339V58.3329L178.514 58.339L178.517 57.3621H180.638L182.068 55.1896H178.522L178.528 53.017H182.968L184.398 50.8446L178.534 50.8445ZM163.282 48.7383H160.985L160.98 50.3046L158.683 50.2984L148.875 50.272L152.89 44.327L154.357 42.1544L158.721 35.6924L161.029 32.2747L160.991 46.4329H163.282L163.282 48.7383Z" fill="#DC3545"/>
<path d="M124.525 35.6363L125.955 33.4637H119.882L119.892 29.7476C119.9 27.2301 119.407 24.8076 118.507 22.6013H120.752L122.181 20.4288H117.455C117.024 19.6695 116.542 18.9439 116.015 18.2563H121.673L123.103 16.0838H114.061C113.327 15.3846 112.536 14.7446 111.695 14.1712C108.722 12.1408 105.107 10.9453 101.249 10.9366C100.867 10.9355 100.486 10.9463 100.108 10.9682C99.7621 10.9482 99.4138 10.9374 99.0636 10.9366C98.5713 10.9352 98.0826 10.9532 97.5984 10.9897C95.5558 11.1438 93.594 11.629 91.7822 12.3929C89.6794 13.2795 87.7765 14.5363 86.1511 16.0835H89.1391C88.4336 16.7551 87.7806 17.4815 87.1861 18.256H84.1981C83.9712 18.5516 83.7529 18.854 83.5434 19.1632C81.6126 22.0108 80.4396 25.4458 80.3291 29.1187H73.4271L71.9976 31.2912H80.316L80.287 42.1538H74.9121L73.4825 44.3264H80.2812L80.2637 50.8431V50.8438H73.8939L72.4643 53.0162H80.3825C80.5849 54.8136 81.0412 56.5412 81.7149 58.1507C82.6121 60.2943 83.8901 62.2309 85.4654 63.8789H90.8163C91.5755 64.6731 92.4038 65.4003 93.2918 66.0513H87.9407C88.1119 66.1768 88.2852 66.2996 88.4608 66.4194C91.0889 68.2143 94.2191 69.3564 97.5746 69.6033C98.0149 69.6357 98.459 69.6529 98.9066 69.6539V69.654C99.2896 69.6551 99.6702 69.6443 100.048 69.6223C100.394 69.6424 100.742 69.6531 101.092 69.6539V69.654C103.662 69.6614 106.133 69.1424 108.374 68.1975C111.738 66.7794 114.59 64.4139 116.613 61.4272C117.461 60.1755 118.163 58.8103 118.693 57.3613H122.999L124.428 55.1888H119.342C119.508 54.4787 119.634 53.7535 119.717 53.0162H123.433L124.863 50.8438H119.836L119.876 35.6361H124.525V35.6363ZM100.047 61.3363C99.5721 61.287 99.1081 61.2059 98.6561 61.0955C98.1006 60.9597 97.563 60.7795 97.0457 60.5586C95.1757 59.7599 93.5737 58.4187 92.4493 56.7376C91.3253 55.0538 90.6766 53.0541 90.6808 50.8654L90.6983 44.3284H93.3539L94.8234 42.1561H90.7041L90.7375 29.669C90.742 28.2079 91.0377 26.8381 91.5689 25.5857C92.0361 24.4839 92.6898 23.475 93.4886 22.6011H97.2315L98.6608 20.429H96.2788C97.0369 20.0222 97.8478 19.707 98.7022 19.4975C99.1592 19.3854 99.6287 19.3038 100.109 19.2542C101.168 19.3641 102.172 19.6314 103.11 20.032C104.98 20.8309 106.582 22.1721 107.707 23.853C108.715 25.3625 109.34 27.1262 109.456 29.0523H107.222V31.3575H109.471L109.419 50.9215C109.414 52.3827 109.119 53.7525 108.587 55.0049C107.792 56.8817 106.455 58.4897 104.78 59.6179C103.394 60.5502 101.792 61.1562 100.047 61.3363Z" fill="#DC3545"/>
<path d="M58.8013 50.8436L58.8026 50.351L51.4267 50.3312L51.4774 31.3573H49.2448V29.052H51.4835L51.5124 18.256H55.8137L57.2432 16.0835H51.5181L51.5297 11.7597L45.788 11.7443L43.5713 11.7383L43.5665 11.7456L40.7122 16.0835H42.9327L41.5031 18.256H39.2826L39.2824 18.2565L37.8529 20.4287H42.4367L41.0074 22.6008H36.4236L26.4178 37.8064H28.1946L26.765 39.9786H24.9884L23.5572 42.1535H16.935L15.5054 44.3261H22.1276L18.2349 50.2418L18.2332 50.8437H13.7069L12.2773 53.0161H18.2274L18.2133 58.2287L43.4468 58.2968L43.4437 59.4672H45.7114V61.7724H43.4376L43.432 63.8786L43.4262 66.0511L43.4146 70.3745L48.8631 70.3892V70.3961H56.2077L57.6373 68.2236H51.3787L51.3845 66.0511H55.0426L56.4721 63.8786H51.3903L51.4052 58.324V58.318L53.6257 58.324L56.4807 58.3317L58.7811 58.3379V58.3319L58.7838 57.361H60.7955L61.0051 57.0424L62.2251 55.1884H58.7895L58.7952 53.0158H63.1258L64.5554 50.8434H58.8013V50.8436ZM43.4725 48.7374L43.4683 50.3037V50.3097L41.1712 50.3035L29.142 50.2711L33.1568 44.3261H28.1834L29.4676 42.3745L29.6129 42.1536H34.6239L41.217 32.391L43.5254 28.9728L43.5166 32.2739L43.4787 46.4322H45.7697V48.7375H43.4725V48.7374Z" fill="#0D6EFD"/>
<path d="M176.313 50.8436L176.315 50.351L168.939 50.3312L168.99 31.3573H166.757V29.052H168.996L169.024 18.256H173.326L174.755 16.0835H169.03L169.042 11.7597L163.3 11.7443L161.083 11.7383L161.079 11.7456L158.224 16.0844L158.224 16.0835H160.445L160.13 16.5623L159.015 18.2561H156.795L156.794 18.2565L155.365 20.4288H159.949L158.519 22.6009H153.936L143.93 37.8064H145.707L144.277 39.9786H142.5L141.069 42.1535H134.447L133.018 44.3261H139.64L135.747 50.2418L135.745 50.8437H131.219L129.79 53.0161H135.74L135.726 58.2287L160.959 58.2968L160.956 59.4672H163.224V61.7724H160.95L160.944 63.8786L160.938 66.0511L160.927 70.3745L166.375 70.3892V70.3961H173.72L175.15 68.2236H168.891L168.897 66.0511H172.555L173.984 63.8786H168.903L168.917 58.324V58.318L171.138 58.324L173.993 58.3317L176.293 58.3379V58.3319L176.296 57.361H178.308L178.517 57.0424L179.737 55.1884H176.302L176.308 53.0158H180.638L182.068 50.8434H176.313V50.8436ZM160.984 48.7374L160.98 50.3037V50.3097L158.683 50.3035L146.654 50.2711L150.669 44.3261H145.695L146.98 42.3745L147.125 42.1536H152.136L158.729 32.391L161.037 28.9728L161.028 32.2739L160.991 46.4322H163.282V48.7375H160.984V48.7374Z" fill="#0D6EFD"/>
<path d="M117.531 53.0164H121.103L122.532 50.844H117.65L117.691 35.6363H116.37L116.375 33.4638H117.697L117.707 29.7476C117.714 27.2301 117.221 24.8076 116.322 22.6013H114.877C114.555 21.85 114.187 21.1248 113.775 20.4288H115.269C114.838 19.6695 114.357 18.9439 113.829 18.2563H119.343L120.773 16.0838H111.998V16.2015C111.229 15.4563 110.397 14.7767 109.509 14.1712C106.806 12.3252 103.572 11.1694 100.108 10.9682C99.7621 10.9482 99.4139 10.9374 99.0636 10.9366C98.5713 10.9352 98.0826 10.9532 97.5984 10.9897C95.5558 11.1438 93.594 11.629 91.7822 12.3929C89.6794 13.2795 87.7765 14.5363 86.1511 16.0835H89.1391C88.4336 16.7551 87.7806 17.4815 87.1861 18.256H84.1981C83.9712 18.5516 83.7529 18.854 83.5434 19.1632C81.6126 22.0109 80.4396 25.4458 80.3291 29.1187H73.4271L71.9976 31.2912H80.316L80.287 42.1538H74.912L73.4824 44.3264H80.2811L80.2636 50.8431V50.8438H73.8938L72.4642 53.0162H80.3824C80.5848 54.8136 81.0411 56.5412 81.7148 58.1507C82.612 60.2943 83.89 62.2309 85.4653 63.8789H90.8162C91.5754 64.6731 92.4037 65.4003 93.2917 66.0513H87.9406C88.1118 66.1768 88.2851 66.2996 88.4607 66.4194C91.0889 68.2143 94.219 69.3564 97.5745 69.6033C98.0148 69.6357 98.459 69.6529 98.9065 69.6539C99.2895 69.655 99.6702 69.6443 100.048 69.6224C102.207 69.497 104.281 69.0016 106.188 68.1976C109.552 66.7794 112.404 64.4139 114.427 61.4272C115.275 60.1755 115.978 58.8103 116.508 57.3613H120.668L122.098 55.1888H117.156C117.322 54.4789 117.448 53.7537 117.531 53.0164ZM94.8599 60.5587C92.99 59.76 91.3879 58.4187 90.2636 56.7377C89.1396 55.0539 88.4909 53.0542 88.495 50.8655L88.5125 44.3284H87.6898L87.6947 42.1562H88.5184L88.5517 29.6691C88.5562 28.208 88.852 26.8382 89.3831 25.5857C90.179 23.7089 91.5155 22.1011 93.1904 20.9726C93.4741 20.7819 93.7671 20.6051 94.0682 20.4424L94.0769 20.4291H94.0928C95.1669 19.8527 96.3471 19.4605 97.606 19.2917C98.0742 19.2289 98.5531 19.1967 99.0415 19.1976C99.403 19.1987 99.7588 19.2179 100.109 19.2543C101.168 19.3642 102.172 19.6315 103.11 20.0321C104.98 20.8309 106.582 22.1722 107.707 23.853C108.714 25.3626 109.34 27.1263 109.455 29.0524H107.222V31.3576H109.471L109.419 50.9216C109.414 52.3827 109.118 53.7526 108.587 55.005C107.791 56.8818 106.455 58.4898 104.78 59.618C103.394 60.5502 101.792 61.1562 100.047 61.3364C99.6806 61.3743 99.3077 61.3937 98.9289 61.3931H98.9289C98.4653 61.3916 98.011 61.3604 97.5667 61.3015C96.6156 61.1753 95.7105 60.9219 94.8599 60.5587ZM111.428 48.7378V46.4324H114.079V48.7378H111.428Z" fill="#0D6EFD"/>
<path d="M54.689 35.6364H66.5481L67.9776 33.4639H56.1185L54.689 35.6364Z" fill="#DC3545"/>
<path d="M172.201 35.6364H184.06L185.49 33.4639H173.631L172.201 35.6364Z" fill="#DC3545"/>
<path d="M27.3091 29.1191H15.45L14.0205 31.2916H25.8796L27.3091 29.1191Z" fill="#0D6EFD"/>
<path d="M144.821 29.1191H132.962L131.532 31.2916H143.391L144.821 29.1191Z" fill="#0D6EFD"/>
</svg>
