<svg width="285" height="90" viewBox="0 0 285 90" fill="none" xmlns="http://www.w3.org/2000/svg">
<path d="M4.736 70V23.344H27.712C29.5893 23.344 31.296 23.5147 32.832 23.856C34.4107 24.1973 35.8187 24.7093 37.056 25.392C38.2933 26.0747 39.3387 26.928 40.192 27.952C41.0453 28.976 41.7067 30.1707 42.176 31.536C42.6453 32.8587 42.88 34.352 42.88 36.016C42.88 38.9173 42.112 41.3707 40.576 43.376C39.0827 45.3387 36.992 46.6827 34.304 47.408V47.792C36.1387 48.0907 37.6107 48.6453 38.72 49.456C39.8293 50.224 40.64 51.2267 41.152 52.464C41.664 53.7013 41.92 55.1947 41.92 56.944V64.816C41.92 65.6267 41.9413 66.48 41.984 67.376C42.0693 68.2293 42.304 69.104 42.688 70H34.112C33.856 69.4027 33.664 68.656 33.536 67.76C33.4507 66.864 33.408 65.8613 33.408 64.752V58.416C33.408 56.9653 33.1947 55.7707 32.768 54.832C32.3413 53.8507 31.5733 53.104 30.464 52.592C29.3547 52.0373 27.7547 51.76 25.664 51.76H12.352V45.04H25.792C28.8213 45.04 30.976 44.336 32.256 42.928C33.536 41.4773 34.176 39.6853 34.176 37.552C34.176 36.2293 33.9627 35.1413 33.536 34.288C33.152 33.392 32.576 32.6667 31.808 32.112C31.0827 31.5147 30.208 31.088 29.184 30.832C28.16 30.5333 27.0293 30.384 25.792 30.384H13.184V70H4.736ZM64.4945 70.576C61.0385 70.576 58.0945 69.872 55.6625 68.464C53.2732 67.0133 51.4385 64.9867 50.1585 62.384C48.8785 59.7387 48.2385 56.6667 48.2385 53.168C48.2385 49.5413 48.8785 46.4053 50.1585 43.76C51.4385 41.072 53.2732 39.0027 55.6625 37.552C58.0518 36.1013 60.8892 35.376 64.1745 35.376C67.9292 35.376 71.0012 36.208 73.3905 37.872C75.8225 39.4933 77.5718 41.7547 78.6385 44.656C79.7052 47.5573 80.0678 50.8853 79.7265 54.64H56.0465C56.0465 56.816 56.3878 58.6507 57.0705 60.144C57.7958 61.5947 58.7772 62.704 60.0145 63.472C61.2945 64.1973 62.7878 64.56 64.4945 64.56C66.4998 64.56 68.1212 64.1333 69.3585 63.28C70.6385 62.4267 71.4918 61.296 71.9185 59.888H79.4705C79.1292 62.1067 78.2758 64.0267 76.9105 65.648C75.5452 67.2267 73.7958 68.4427 71.6625 69.296C69.5292 70.1493 67.1398 70.576 64.4945 70.576ZM56.0465 50.352L55.3425 49.52H72.6865L71.9185 50.416C72.0038 48.3253 71.7265 46.6187 71.0865 45.296C70.4465 43.9733 69.5292 42.992 68.3345 42.352C67.1398 41.712 65.7532 41.392 64.1745 41.392C62.5532 41.392 61.1452 41.7333 59.9505 42.416C58.7558 43.0987 57.8172 44.1227 57.1345 45.488C56.4518 46.8107 56.0892 48.432 56.0465 50.352ZM86.1005 80.688V35.952H93.7165L94.0365 42.16H94.4845C95.2098 40.112 96.5538 38.4693 98.5165 37.232C100.479 35.952 102.805 35.312 105.493 35.312C107.583 35.312 109.482 35.7173 111.189 36.528C112.895 37.3387 114.367 38.512 115.604 40.048C116.842 41.5413 117.781 43.376 118.421 45.552C119.103 47.728 119.444 50.2027 119.444 52.976C119.444 56.6453 118.847 59.8027 117.653 62.448C116.501 65.0933 114.879 67.12 112.789 68.528C110.698 69.936 108.266 70.64 105.493 70.64C103.701 70.64 102.058 70.3627 100.565 69.808C99.0712 69.2107 97.7912 68.4 96.7245 67.376C95.7005 66.352 94.9538 65.1787 94.4845 63.856H94.1005V80.688H86.1005ZM102.485 64.112C104.362 64.112 105.962 63.664 107.285 62.768C108.607 61.872 109.589 60.592 110.229 58.928C110.911 57.2213 111.253 55.2373 111.253 52.976C111.253 50.672 110.933 48.688 110.293 47.024C109.653 45.36 108.693 44.08 107.413 43.184C106.133 42.288 104.554 41.84 102.677 41.84C100.799 41.84 99.2205 42.2667 97.9405 43.12C96.6605 43.9307 95.7005 45.0613 95.0605 46.512C94.4205 47.92 94.1005 49.4773 94.1005 51.184V54.832C94.1005 56.5813 94.4418 58.16 95.1245 59.568C95.8072 60.9333 96.7672 62.0427 98.0045 62.896C99.2418 63.7067 100.735 64.112 102.485 64.112ZM142.389 70.576C139.829 70.576 137.525 70.192 135.477 69.424C133.429 68.6133 131.637 67.44 130.101 65.904C128.608 64.368 127.456 62.512 126.645 60.336C125.877 58.16 125.493 55.7067 125.493 52.976C125.493 49.4773 126.154 46.4053 127.477 43.76C128.842 41.1147 130.784 39.0453 133.301 37.552C135.818 36.0587 138.848 35.312 142.389 35.312C144.906 35.312 147.189 35.7173 149.237 36.528C151.285 37.3387 153.034 38.512 154.485 40.048C155.978 41.584 157.13 43.44 157.941 45.616C158.752 47.7493 159.157 50.2027 159.157 52.976C159.157 56.432 158.474 59.4827 157.109 62.128C155.786 64.7733 153.866 66.8427 151.349 68.336C148.874 69.8293 145.888 70.576 142.389 70.576ZM142.325 63.984C144.074 63.984 145.61 63.5787 146.933 62.768C148.256 61.9147 149.28 60.6773 150.005 59.056C150.73 57.392 151.093 55.3653 151.093 52.976C151.093 51.184 150.88 49.6053 150.453 48.24C150.069 46.832 149.493 45.6587 148.725 44.72C147.957 43.7813 147.04 43.0773 145.973 42.608C144.906 42.1387 143.712 41.904 142.389 41.904C140.64 41.904 139.082 42.3307 137.717 43.184C136.394 43.9947 135.37 45.232 134.645 46.896C133.92 48.5173 133.557 50.544 133.557 52.976C133.557 54.768 133.749 56.368 134.133 57.776C134.56 59.1413 135.157 60.2933 135.925 61.232C136.693 62.128 137.61 62.8107 138.677 63.28C139.786 63.7493 141.002 63.984 142.325 63.984ZM171.395 70L175.675 48.64C176.208 46.0533 177.208 44.16 178.675 42.96C180.168 41.76 182.062 41.16 184.355 41.16C185.608 41.16 186.728 41.36 187.715 41.76C188.702 42.1333 189.528 42.6 190.195 43.16L188.435 45.48C187.875 45.0267 187.275 44.6933 186.635 44.48C186.022 44.24 185.302 44.12 184.475 44.12C183.195 44.12 182.102 44.48 181.195 45.2C180.288 45.8933 179.662 47.0667 179.315 48.72L175.075 70H171.395ZM169.195 53.4L169.755 50.64L175.355 50.44H186.835L186.235 53.4H169.195ZM199.619 70.48C197.939 70.48 196.459 70.16 195.179 69.52C193.926 68.88 192.953 67.9333 192.259 66.68C191.566 65.4 191.219 63.8267 191.219 61.96C191.219 60.2 191.513 58.6 192.099 57.16C192.713 55.6933 193.539 54.4267 194.579 53.36C195.619 52.2667 196.806 51.4267 198.139 50.84C199.499 50.2533 200.926 49.96 202.419 49.96C204.819 49.96 206.673 50.68 207.979 52.12C209.313 53.5333 209.979 55.3333 209.979 57.52C209.979 58.24 209.913 58.96 209.779 59.68C209.646 60.4 209.526 60.9067 209.419 61.2H194.019L194.459 58.48H207.659L206.299 59.16C206.379 58.8667 206.433 58.5733 206.459 58.28C206.513 57.9867 206.539 57.6933 206.539 57.4C206.539 55.9867 206.153 54.88 205.379 54.08C204.606 53.28 203.566 52.88 202.259 52.88C201.379 52.88 200.499 53.0933 199.619 53.52C198.766 53.92 197.979 54.5067 197.259 55.28C196.566 56.0533 195.993 56.9867 195.539 58.08C195.086 59.1733 194.859 60.4133 194.859 61.8C194.859 63.08 195.086 64.1467 195.539 65C196.019 65.8533 196.673 66.5067 197.499 66.96C198.353 67.3867 199.326 67.6 200.419 67.6C201.646 67.6 202.793 67.3733 203.859 66.92C204.953 66.44 205.953 65.8533 206.859 65.16L208.179 67.64C207.166 68.44 205.913 69.12 204.419 69.68C202.953 70.2133 201.353 70.48 199.619 70.48ZM225.164 70.48C223.03 70.48 221.47 69.96 220.484 68.92C219.497 67.88 219.004 66.5067 219.004 64.8C219.004 64.3733 219.03 63.96 219.084 63.56C219.164 63.16 219.244 62.7333 219.324 62.28L221.164 53.4H215.644L216.164 50.68L221.924 50.44L223.484 44.96H226.564L225.404 50.44H234.724L234.124 53.4H224.804L222.964 62.28C222.884 62.6267 222.83 62.9333 222.804 63.2C222.777 63.4667 222.764 63.7333 222.764 64C222.764 65.1733 223.07 66.04 223.684 66.6C224.324 67.16 225.15 67.44 226.164 67.44C227.097 67.44 227.977 67.2933 228.804 67C229.63 66.7067 230.377 66.3733 231.044 66L232.204 68.64C231.377 69.1733 230.337 69.6133 229.084 69.96C227.857 70.3067 226.55 70.48 225.164 70.48ZM248.548 70.48C246.841 70.48 245.295 70.16 243.908 69.52C242.548 68.88 241.455 67.9333 240.628 66.68C239.828 65.4 239.428 63.8 239.428 61.88C239.428 60.0933 239.748 58.48 240.388 57.04C241.055 55.5733 241.935 54.32 243.028 53.28C244.148 52.2133 245.415 51.4 246.828 50.84C248.241 50.2533 249.721 49.96 251.268 49.96C253.001 49.96 254.495 50.32 255.748 51.04C257.001 51.7333 257.975 52.5467 258.668 53.48L256.348 55.56C255.655 54.7067 254.855 54.08 253.948 53.68C253.068 53.2533 252.041 53.04 250.868 53.04C249.935 53.04 249.001 53.2533 248.068 53.68C247.161 54.1067 246.335 54.7067 245.588 55.48C244.841 56.2533 244.241 57.1467 243.788 58.16C243.361 59.1733 243.148 60.28 243.148 61.48C243.148 63.48 243.708 64.9733 244.828 65.96C245.975 66.92 247.375 67.4 249.028 67.4C250.148 67.4 251.188 67.16 252.148 66.68C253.135 66.2 254.055 65.5867 254.908 64.84L256.348 67.36C255.335 68.2933 254.148 69.0533 252.788 69.64C251.428 70.2 250.015 70.48 248.548 70.48ZM262.053 70L267.733 41.64H271.413L269.373 51.52L268.693 54.2H268.853C269.599 53.4267 270.413 52.72 271.293 52.08C272.173 51.44 273.093 50.9333 274.053 50.56C275.013 50.16 276.039 49.96 277.133 49.96C278.839 49.96 280.106 50.4 280.933 51.28C281.759 52.16 282.173 53.36 282.173 54.88C282.173 55.4133 282.133 55.9467 282.053 56.48C281.999 56.9867 281.919 57.4933 281.813 58L279.413 70H275.693L278.013 58.44C278.119 57.9333 278.199 57.48 278.253 57.08C278.333 56.68 278.373 56.28 278.373 55.88C278.373 55 278.133 54.3333 277.653 53.88C277.173 53.4 276.479 53.16 275.573 53.16C274.373 53.16 273.146 53.5467 271.893 54.32C270.666 55.0667 269.439 56.1467 268.213 57.56L265.733 70H262.053Z" fill="#F9FAFB"/>
</svg>
