<svg width="360" height="90" viewBox="0 0 360 90" fill="none" xmlns="http://www.w3.org/2000/svg">
<path d="M79.736 70V23.344H102.712C104.589 23.344 106.296 23.5147 107.832 23.856C109.411 24.1973 110.819 24.7093 112.056 25.392C113.293 26.0747 114.339 26.928 115.192 27.952C116.045 28.976 116.707 30.1707 117.176 31.536C117.645 32.8587 117.88 34.352 117.88 36.016C117.88 38.9173 117.112 41.3707 115.576 43.376C114.083 45.3387 111.992 46.6827 109.304 47.408V47.792C111.139 48.0907 112.611 48.6453 113.72 49.456C114.829 50.224 115.64 51.2267 116.152 52.464C116.664 53.7013 116.92 55.1947 116.92 56.944V64.816C116.92 65.6267 116.941 66.48 116.984 67.376C117.069 68.2293 117.304 69.104 117.688 70H109.112C108.856 69.4027 108.664 68.656 108.536 67.76C108.451 66.864 108.408 65.8613 108.408 64.752V58.416C108.408 56.9653 108.195 55.7707 107.768 54.832C107.341 53.8507 106.573 53.104 105.464 52.592C104.355 52.0373 102.755 51.76 100.664 51.76H87.352V45.04H100.792C103.821 45.04 105.976 44.336 107.256 42.928C108.536 41.4773 109.176 39.6853 109.176 37.552C109.176 36.2293 108.963 35.1413 108.536 34.288C108.152 33.392 107.576 32.6667 106.808 32.112C106.083 31.5147 105.208 31.088 104.184 30.832C103.16 30.5333 102.029 30.384 100.792 30.384H88.184V70H79.736ZM139.495 70.576C136.039 70.576 133.095 69.872 130.663 68.464C128.273 67.0133 126.439 64.9867 125.159 62.384C123.879 59.7387 123.239 56.6667 123.239 53.168C123.239 49.5413 123.879 46.4053 125.159 43.76C126.439 41.072 128.273 39.0027 130.663 37.552C133.052 36.1013 135.889 35.376 139.175 35.376C142.929 35.376 146.001 36.208 148.391 37.872C150.823 39.4933 152.572 41.7547 153.639 44.656C154.705 47.5573 155.068 50.8853 154.727 54.64H131.047C131.047 56.816 131.388 58.6507 132.071 60.144C132.796 61.5947 133.777 62.704 135.015 63.472C136.295 64.1973 137.788 64.56 139.495 64.56C141.5 64.56 143.121 64.1333 144.359 63.28C145.639 62.4267 146.492 61.296 146.919 59.888H154.471C154.129 62.1067 153.276 64.0267 151.911 65.648C150.545 67.2267 148.796 68.4427 146.663 69.296C144.529 70.1493 142.14 70.576 139.495 70.576ZM131.047 50.352L130.343 49.52H147.687L146.919 50.416C147.004 48.3253 146.727 46.6187 146.087 45.296C145.447 43.9733 144.529 42.992 143.335 42.352C142.14 41.712 140.753 41.392 139.175 41.392C137.553 41.392 136.145 41.7333 134.951 42.416C133.756 43.0987 132.817 44.1227 132.135 45.488C131.452 46.8107 131.089 48.432 131.047 50.352ZM161.101 80.688V35.952H168.717L169.037 42.16H169.485C170.21 40.112 171.554 38.4693 173.517 37.232C175.479 35.952 177.805 35.312 180.493 35.312C182.583 35.312 184.482 35.7173 186.189 36.528C187.895 37.3387 189.367 38.512 190.604 40.048C191.842 41.5413 192.781 43.376 193.421 45.552C194.103 47.728 194.444 50.2027 194.444 52.976C194.444 56.6453 193.847 59.8027 192.653 62.448C191.501 65.0933 189.879 67.12 187.789 68.528C185.698 69.936 183.266 70.64 180.493 70.64C178.701 70.64 177.058 70.3627 175.565 69.808C174.071 69.2107 172.791 68.4 171.725 67.376C170.701 66.352 169.954 65.1787 169.485 63.856H169.101V80.688H161.101ZM177.485 64.112C179.362 64.112 180.962 63.664 182.285 62.768C183.607 61.872 184.589 60.592 185.229 58.928C185.911 57.2213 186.253 55.2373 186.253 52.976C186.253 50.672 185.933 48.688 185.293 47.024C184.653 45.36 183.693 44.08 182.413 43.184C181.133 42.288 179.554 41.84 177.677 41.84C175.799 41.84 174.221 42.2667 172.941 43.12C171.661 43.9307 170.701 45.0613 170.061 46.512C169.421 47.92 169.101 49.4773 169.101 51.184V54.832C169.101 56.5813 169.442 58.16 170.125 59.568C170.807 60.9333 171.767 62.0427 173.005 62.896C174.242 63.7067 175.735 64.112 177.485 64.112ZM217.389 70.576C214.829 70.576 212.525 70.192 210.477 69.424C208.429 68.6133 206.637 67.44 205.101 65.904C203.608 64.368 202.456 62.512 201.645 60.336C200.877 58.16 200.493 55.7067 200.493 52.976C200.493 49.4773 201.154 46.4053 202.477 43.76C203.842 41.1147 205.784 39.0453 208.301 37.552C210.818 36.0587 213.848 35.312 217.389 35.312C219.906 35.312 222.189 35.7173 224.237 36.528C226.285 37.3387 228.034 38.512 229.485 40.048C230.978 41.584 232.13 43.44 232.941 45.616C233.752 47.7493 234.157 50.2027 234.157 52.976C234.157 56.432 233.474 59.4827 232.109 62.128C230.786 64.7733 228.866 66.8427 226.349 68.336C223.874 69.8293 220.888 70.576 217.389 70.576ZM217.325 63.984C219.074 63.984 220.61 63.5787 221.933 62.768C223.256 61.9147 224.28 60.6773 225.005 59.056C225.73 57.392 226.093 55.3653 226.093 52.976C226.093 51.184 225.88 49.6053 225.453 48.24C225.069 46.832 224.493 45.6587 223.725 44.72C222.957 43.7813 222.04 43.0773 220.973 42.608C219.906 42.1387 218.712 41.904 217.389 41.904C215.64 41.904 214.082 42.3307 212.717 43.184C211.394 43.9947 210.37 45.232 209.645 46.896C208.92 48.5173 208.557 50.544 208.557 52.976C208.557 54.768 208.749 56.368 209.133 57.776C209.56 59.1413 210.157 60.2933 210.925 61.232C211.693 62.128 212.61 62.8107 213.677 63.28C214.786 63.7493 216.002 63.984 217.325 63.984ZM246.395 70L250.675 48.64C251.208 46.0533 252.208 44.16 253.675 42.96C255.168 41.76 257.062 41.16 259.355 41.16C260.608 41.16 261.728 41.36 262.715 41.76C263.702 42.1333 264.528 42.6 265.195 43.16L263.435 45.48C262.875 45.0267 262.275 44.6933 261.635 44.48C261.022 44.24 260.302 44.12 259.475 44.12C258.195 44.12 257.102 44.48 256.195 45.2C255.288 45.8933 254.662 47.0667 254.315 48.72L250.075 70H246.395ZM244.195 53.4L244.755 50.64L250.355 50.44H261.835L261.235 53.4H244.195ZM274.619 70.48C272.939 70.48 271.459 70.16 270.179 69.52C268.926 68.88 267.953 67.9333 267.259 66.68C266.566 65.4 266.219 63.8267 266.219 61.96C266.219 60.2 266.513 58.6 267.099 57.16C267.713 55.6933 268.539 54.4267 269.579 53.36C270.619 52.2667 271.806 51.4267 273.139 50.84C274.499 50.2533 275.926 49.96 277.419 49.96C279.819 49.96 281.673 50.68 282.979 52.12C284.313 53.5333 284.979 55.3333 284.979 57.52C284.979 58.24 284.913 58.96 284.779 59.68C284.646 60.4 284.526 60.9067 284.419 61.2H269.019L269.459 58.48H282.659L281.299 59.16C281.379 58.8667 281.433 58.5733 281.459 58.28C281.513 57.9867 281.539 57.6933 281.539 57.4C281.539 55.9867 281.153 54.88 280.379 54.08C279.606 53.28 278.566 52.88 277.259 52.88C276.379 52.88 275.499 53.0933 274.619 53.52C273.766 53.92 272.979 54.5067 272.259 55.28C271.566 56.0533 270.993 56.9867 270.539 58.08C270.086 59.1733 269.859 60.4133 269.859 61.8C269.859 63.08 270.086 64.1467 270.539 65C271.019 65.8533 271.673 66.5067 272.499 66.96C273.353 67.3867 274.326 67.6 275.419 67.6C276.646 67.6 277.793 67.3733 278.859 66.92C279.953 66.44 280.953 65.8533 281.859 65.16L283.179 67.64C282.166 68.44 280.913 69.12 279.419 69.68C277.953 70.2133 276.353 70.48 274.619 70.48ZM300.164 70.48C298.03 70.48 296.47 69.96 295.484 68.92C294.497 67.88 294.004 66.5067 294.004 64.8C294.004 64.3733 294.03 63.96 294.084 63.56C294.164 63.16 294.244 62.7333 294.324 62.28L296.164 53.4H290.644L291.164 50.68L296.924 50.44L298.484 44.96H301.564L300.404 50.44H309.724L309.124 53.4H299.804L297.964 62.28C297.884 62.6267 297.83 62.9333 297.804 63.2C297.777 63.4667 297.764 63.7333 297.764 64C297.764 65.1733 298.07 66.04 298.684 66.6C299.324 67.16 300.15 67.44 301.164 67.44C302.097 67.44 302.977 67.2933 303.804 67C304.63 66.7067 305.377 66.3733 306.044 66L307.204 68.64C306.377 69.1733 305.337 69.6133 304.084 69.96C302.857 70.3067 301.55 70.48 300.164 70.48ZM323.548 70.48C321.841 70.48 320.295 70.16 318.908 69.52C317.548 68.88 316.455 67.9333 315.628 66.68C314.828 65.4 314.428 63.8 314.428 61.88C314.428 60.0933 314.748 58.48 315.388 57.04C316.055 55.5733 316.935 54.32 318.028 53.28C319.148 52.2133 320.415 51.4 321.828 50.84C323.241 50.2533 324.721 49.96 326.268 49.96C328.001 49.96 329.495 50.32 330.748 51.04C332.001 51.7333 332.975 52.5467 333.668 53.48L331.348 55.56C330.655 54.7067 329.855 54.08 328.948 53.68C328.068 53.2533 327.041 53.04 325.868 53.04C324.935 53.04 324.001 53.2533 323.068 53.68C322.161 54.1067 321.335 54.7067 320.588 55.48C319.841 56.2533 319.241 57.1467 318.788 58.16C318.361 59.1733 318.148 60.28 318.148 61.48C318.148 63.48 318.708 64.9733 319.828 65.96C320.975 66.92 322.375 67.4 324.028 67.4C325.148 67.4 326.188 67.16 327.148 66.68C328.135 66.2 329.055 65.5867 329.908 64.84L331.348 67.36C330.335 68.2933 329.148 69.0533 327.788 69.64C326.428 70.2 325.015 70.48 323.548 70.48ZM337.053 70L342.733 41.64H346.413L344.373 51.52L343.693 54.2H343.853C344.599 53.4267 345.413 52.72 346.293 52.08C347.173 51.44 348.093 50.9333 349.053 50.56C350.013 50.16 351.039 49.96 352.133 49.96C353.839 49.96 355.106 50.4 355.933 51.28C356.759 52.16 357.173 53.36 357.173 54.88C357.173 55.4133 357.133 55.9467 357.053 56.48C356.999 56.9867 356.919 57.4933 356.813 58L354.413 70H350.693L353.013 58.44C353.119 57.9333 353.199 57.48 353.253 57.08C353.333 56.68 353.373 56.28 353.373 55.88C353.373 55 353.133 54.3333 352.653 53.88C352.173 53.4 351.479 53.16 350.573 53.16C349.373 53.16 348.146 53.5467 346.893 54.32C345.666 55.0667 344.439 56.1467 343.213 57.56L340.733 70H337.053Z" fill="#F9FAFB"/>
<path d="M45.3333 39.6667L32 53L18.6667 39.6667M32 53V21M56 53V63.6667C56 65.0812 55.4381 66.4377 54.4379 67.4379C53.4377 68.4381 52.0812 69 50.6667 69H13.3333C11.9188 69 10.5623 68.4381 9.5621 67.4379C8.5619 66.4377 8 65.0812 8 63.6667V53" stroke="#F9FAFB" stroke-width="2" stroke-linecap="round" stroke-linejoin="round"/>
</svg>
